<?xml version="1.0" standalone="no"?>
<!DOCTYPE svg PUBLIC "-//W3C//DTD SVG 20010904//EN" "http://www.w3.org/TR/2001/REC-SVG-20010904/DTD/svg10.dtd">
<svg version="1.0" xmlns="http://www.w3.org/2000/svg"
  width="640.000000pt" height="640.000000pt" viewBox="0 0 640.000000 640.000000"
  preserveAspectRatio="xMidYMid meet">
  <rect width="100%" height="100%" fill="white"/>
  <g transform="translate(0.000000,640.000000) scale(0.100000,-0.100000)"
    fill="#000000" stroke="none">
    <path
      d="M3110 6374 c-156 -25 -435 -93 -590 -144 -112 -37 -165 -49 -231 -53
-73 -4 -98 -10 -172 -45 -47 -22 -118 -62 -159 -88 -100 -66 -235 -130 -316
-150 -37 -9 -99 -31 -139 -50 -39 -19 -76 -34 -82 -34 -6 0 -11 -4 -11 -10 0
-5 -5 -10 -10 -10 -15 0 -139 -83 -178 -119 -17 -16 -32 -38 -32 -49 0 -11
-53 -72 -125 -144 -114 -113 -125 -128 -125 -161 0 -26 7 -41 26 -56 l26 -20
-31 -53 c-17 -29 -49 -73 -72 -98 -48 -53 -79 -100 -79 -119 0 -8 7 -22 16
-32 14 -16 14 -23 -5 -84 -28 -91 -28 -140 2 -159 12 -8 39 -18 59 -21 45 -9
101 20 163 84 21 23 43 41 47 41 20 0 5 -36 -33 -78 -42 -48 -89 -130 -89
-155 0 -20 33 -47 57 -47 19 0 42 16 155 109 l30 24 -30 -54 c-41 -72 -58
-140 -42 -168 21 -40 56 -44 119 -15 31 15 75 27 98 28 28 1 50 9 66 24 34 32
40 27 21 -15 -9 -21 -33 -83 -54 -138 -21 -55 -56 -138 -78 -185 -48 -103 -57
-142 -42 -170 9 -18 6 -47 -20 -153 -53 -216 -50 -209 -95 -232 -69 -35 -178
-112 -230 -163 -169 -166 -163 -458 15 -718 34 -49 86 -95 151 -136 40 -24 50
-36 55 -66 13 -70 96 -281 137 -349 53 -87 109 -162 122 -163 13 0 95 82 95
96 0 7 -28 55 -63 107 -44 66 -74 125 -99 198 -64 182 -63 176 -62 424 0 233
25 517 58 680 8 39 20 98 27 133 7 36 17 62 24 62 14 0 19 -43 35 -290 14
-212 28 -298 55 -340 14 -22 27 -64 34 -115 9 -64 18 -87 44 -120 48 -62 221
-205 248 -205 5 0 9 26 9 58 l0 57 -58 47 c-125 101 -139 124 -182 298 -28
115 -35 175 -58 513 l-7 107 131 0 c159 0 376 23 539 56 155 32 422 53 460 36
l27 -13 -7 -157 c-8 -193 -19 -287 -50 -408 -46 -183 -143 -355 -261 -464
l-45 -41 22 -18 c12 -10 22 -29 22 -44 0 -15 3 -27 7 -27 4 0 28 18 54 41 161
142 292 396 330 639 12 73 13 75 39 72 15 -1 59 9 99 22 40 14 125 32 188 41
63 9 168 24 233 34 106 16 117 17 117 2 1 -59 34 -252 64 -370 20 -77 36 -145
36 -151 0 -5 -9 -10 -21 -10 -11 0 -48 -15 -82 -34 -112 -62 -231 -71 -386
-32 -95 25 -112 25 -143 -2 -36 -30 -12 -100 40 -121 112 -44 280 -65 370 -45
72 16 162 50 207 79 l51 32 55 -52 c68 -63 195 -140 269 -163 40 -12 90 -17
185 -17 128 0 131 1 195 34 88 45 106 63 150 156 80 163 150 422 150 550 l0
62 143 41 c78 23 174 49 212 57 39 9 79 18 90 21 11 3 3 -6 -18 -19 -103 -66
-139 -132 -145 -269 -4 -93 -3 -98 21 -122 30 -30 62 -33 95 -10 19 13 22 24
22 75 0 170 57 221 267 236 74 5 101 3 136 -11 62 -23 132 -98 171 -181 43
-90 47 -110 47 -214 1 -69 -5 -104 -29 -177 -81 -245 -201 -345 -422 -348 -80
-1 -102 2 -139 22 -58 29 -105 29 -125 0 -21 -30 -20 -60 4 -91 11 -14 20 -32
20 -40 0 -33 -325 -291 -436 -347 -16 -8 -40 -22 -54 -31 -14 -9 -124 -63
-245 -119 -121 -57 -232 -111 -247 -121 -14 -11 -29 -19 -33 -19 -16 0 -144
-90 -186 -131 -26 -26 -54 -66 -64 -92 -17 -45 -17 -48 5 -119 40 -132 70
-202 125 -288 29 -47 77 -125 105 -175 29 -49 85 -139 125 -200 65 -100 195
-310 281 -456 18 -31 56 -98 83 -150 l50 -94 80 -3 c45 -2 81 0 81 3 0 3 -4
13 -9 23 -6 9 -32 62 -59 117 -27 55 -95 177 -152 270 -57 94 -117 195 -135
225 -17 30 -63 102 -102 160 -39 58 -78 121 -88 140 -10 19 -47 80 -83 135
-97 150 -146 256 -150 329 -3 60 -3 61 36 93 21 17 84 57 140 88 94 52 144 76
382 187 105 49 250 134 352 205 67 47 214 164 228 182 3 3 35 35 72 70 l68 64
92 8 c110 9 249 55 320 107 92 66 188 225 238 397 30 99 32 238 7 334 -10 35
-15 72 -11 83 5 17 8 16 34 -12 32 -35 49 -37 80 -12 18 15 23 31 28 90 4 67
6 72 22 57 22 -20 43 -19 65 5 15 17 19 51 26 282 8 271 24 454 41 475 6 8 7
29 3 50 -11 56 -8 229 4 251 15 28 4 58 -83 230 -119 235 -348 521 -522 653
-199 152 -401 239 -607 265 -40 4 -51 11 -68 37 -10 18 -19 43 -19 56 0 17
-42 65 -152 175 -84 83 -170 166 -191 184 l-37 32 20 41 c12 22 19 43 16 46
-2 3 -12 -10 -22 -29 -9 -18 -18 -34 -19 -36 -6 -7 -42 17 -154 101 -126 95
-161 109 -371 151 -334 67 -543 85 -700 60z m745 -362 l50 -21 -35 0 c-20 -1
-59 -7 -88 -15 -43 -11 -73 -11 -184 0 -73 8 -187 24 -253 36 l-120 23 65 5
c36 3 166 2 290 -2 194 -5 232 -9 275 -26z m474 -263 c27 -6 55 -17 61 -24 9
-11 2 -13 -47 -9 -74 7 -83 10 -83 29 0 18 4 18 69 4z m231 -174 c0 -19 -17
-19 -50 0 l-25 14 38 1 c26 0 37 -4 37 -15z m361 -145 c29 -8 38 -16 42 -40 4
-18 17 -34 34 -44 36 -18 184 -128 201 -149 8 -9 -26 6 -75 33 -64 36 -99 50
-128 50 -50 1 -79 25 -123 103 -32 56 -32 57 -10 57 13 0 39 -5 59 -10z m-717
-36 c9 -3 16 -9 16 -13 0 -10 -59 -1 -66 10 -6 10 26 12 50 3z m-470 -134
c245 -28 330 -58 681 -244 17 -9 45 -16 62 -16 95 0 225 -213 401 -656 54
-137 141 -347 192 -467 51 -120 91 -220 88 -222 -3 -3 -117 -34 -254 -70 -137
-36 -270 -71 -296 -79 l-48 -15 0 67 c1 37 5 99 10 137 5 39 12 129 15 200 6
126 6 131 -17 158 -20 24 -34 30 -98 38 -41 5 -158 10 -260 11 -183 2 -187 2
-345 -36 -287 -68 -401 -112 -495 -187 -30 -24 -73 -51 -95 -59 -32 -12 -41
-21 -43 -43 -5 -45 14 -60 71 -54 l49 4 -6 -31 c-3 -17 -8 -52 -11 -77 l-7
-46 -141 -21 c-78 -12 -173 -26 -212 -32 -38 -5 -103 -21 -142 -34 -40 -14
-73 -22 -73 -18 -1 4 0 84 0 179 l1 172 -30 33 -29 33 -139 3 c-153 4 -272 -8
-438 -43 -147 -31 -296 -45 -486 -45 -127 0 -159 3 -169 15 -7 8 -24 15 -37
15 -20 0 -24 4 -18 18 3 9 11 40 16 67 11 60 54 210 81 283 14 36 28 57 48 67
34 18 176 138 330 280 85 78 150 127 250 187 133 81 647 345 787 406 59 25 74
36 79 58 4 15 2 35 -5 46 -10 16 -8 18 21 19 18 1 94 5 168 8 245 13 363 11
544 -9z m705 -76 c24 -8 61 -14 81 -14 36 0 40 -4 79 -65 22 -36 38 -65 35
-65 -3 0 -20 11 -38 25 -18 14 -55 29 -82 35 -60 12 -244 106 -244 125 0 13 4
12 169 -41z m-1974 16 c-99 -48 -198 -90 -202 -86 -5 4 127 73 174 91 56 20
74 17 28 -5z m2416 -100 c57 -18 164 -68 148 -70 -4 0 -28 9 -53 21 -26 11
-68 21 -93 22 -35 2 -49 7 -61 25 -18 27 -19 27 59 2z m-3860 -88 c-11 -16
-28 -35 -37 -43 -16 -13 -16 -12 -1 18 14 26 40 51 55 53 2 0 -6 -13 -17 -28z
m1029 -182 c-58 -54 -146 -118 -267 -194 -24 -14 -43 -24 -43 -22 0 17 78 130
101 147 32 22 249 128 264 128 6 0 -19 -27 -55 -59z m3323 -30 c25 -27 43 -50
38 -50 -13 0 -91 76 -91 88 0 18 4 16 53 -38z m-3983 -149 c0 -12 -77 -81 -90
-81 -18 0 54 89 73 90 9 0 17 -4 17 -9z m3923 -113 c44 -63 79 -122 60 -103
-17 16 -113 152 -113 159 0 15 12 2 53 -56z m570 -59 c44 -75 44 -75 25 -98
-10 -13 -20 -22 -21 -20 -2 2 -13 40 -24 84 -12 44 -25 89 -29 100 -12 32 1
15 49 -66z m-707 -222 c9 -27 14 -50 11 -53 -3 -4 -24 43 -52 121 l-8 20 16
-20 c9 -11 24 -42 33 -68z m-733 -273 l37 -7 0 -71 c0 -39 -5 -109 -10 -156
-5 -47 -15 -182 -20 -300 -13 -247 -25 -315 -86 -488 -63 -179 -81 -211 -145
-249 -52 -31 -57 -32 -171 -33 -133 0 -171 12 -295 93 -101 66 -107 75 -147
232 -70 275 -81 345 -96 575 -5 80 -12 170 -16 201 l-6 56 78 31 c87 35 221
72 389 108 99 22 127 24 280 19 94 -3 187 -8 208 -11z m1044 -360 c10 -26 41
-149 38 -152 -1 -1 -32 12 -69 29 l-67 31 26 24 c14 12 25 34 25 48 0 34 36
49 47 20z m-259 -79 c-2 -1 -21 -5 -43 -8 l-40 -6 35 13 c29 11 61 12 48 1z
m-4066 -166 c4 -12 1 -38 -21 -234 -6 -49 -14 -155 -17 -235 -4 -80 -10 -149
-14 -153 -17 -19 -49 16 -107 123 -48 86 -61 271 -26 352 36 79 172 187 185
147z" />
    <path
      d="M3916 3519 c-112 -27 -159 -89 -127 -171 38 -98 272 -214 418 -206
l58 3 24 50 c34 71 39 135 13 177 -69 112 -247 179 -386 147z" />
    <path
      d="M2185 3422 c-53 -25 -143 -117 -177 -181 -61 -113 -11 -211 108 -211
82 0 189 81 253 193 42 74 43 115 4 171 -28 39 -31 41 -88 44 -42 1 -72 -4
-100 -16z" />
    <path
      d="M5182 3182 c-23 -9 -65 -39 -92 -66 -39 -38 -50 -56 -50 -81 0 -34
34 -75 63 -75 18 0 87 38 87 49 0 13 61 43 76 37 17 -6 19 -58 3 -87 -6 -11
-41 -40 -79 -64 -72 -47 -88 -73 -70 -119 23 -61 101 -53 194 21 68 53 112
120 120 185 21 157 -106 258 -252 200z" />
    <path
      d="M1920 2636 l0 -54 83 -13 c45 -7 111 -13 146 -13 l64 -1 12 35 c30
85 33 78 -37 73 -35 -3 -106 2 -160 11 -54 9 -100 16 -103 16 -3 0 -5 -24 -5
-54z" />
    <path
      d="M1531 1945 c-22 -24 -41 -50 -41 -58 0 -19 147 -159 212 -200 87 -57
83 -58 100 27 l15 75 -51 35 c-29 20 -81 65 -116 101 -36 36 -68 65 -71 65 -4
0 -25 -20 -48 -45z" />
    <path
      d="M1900 1650 c-6 -38 -9 -73 -7 -77 3 -4 31 -21 63 -38 l57 -30 -164
-3 c-90 -2 -191 2 -224 7 -33 6 -99 14 -146 17 -82 6 -87 6 -98 -14 -11 -21
-15 -19 -76 46 -104 111 -219 159 -352 149 -99 -7 -170 -41 -301 -143 -2 -1
-9 -17 -16 -36 -21 -57 -67 -122 -110 -153 -61 -46 -86 -89 -86 -149 0 -43 8
-64 50 -136 39 -67 50 -94 50 -129 0 -58 31 -121 82 -169 103 -95 132 -129
155 -181 59 -134 267 -365 452 -503 154 -115 134 -108 316 -108 l160 1 -113
58 c-61 32 -114 60 -117 62 -2 3 59 3 138 1 86 -3 158 0 183 7 65 18 156 83
209 150 l48 61 66 0 c61 0 225 27 297 48 120 37 265 106 412 199 66 41 266
241 346 346 109 144 126 212 86 348 -17 57 -28 75 -64 105 -94 78 -209 105
-581 134 -77 6 -167 18 -200 25 -33 8 -85 19 -115 25 -84 18 -196 58 -293 106
-49 24 -90 44 -92 44 -2 0 -8 -31 -15 -70z m-776 -84 c58 -28 137 -107 170
-168 19 -36 19 -36 -3 -63 -12 -16 -19 -35 -16 -44 2 -9 7 -66 10 -127 5 -97
3 -118 -15 -167 -17 -44 -31 -64 -64 -86 -23 -16 -55 -47 -70 -70 -32 -46 -66
-60 -166 -71 -85 -9 -106 0 -201 92 -76 73 -77 73 -83 136 -6 63 -21 103 -61
157 -44 59 -41 86 13 117 l30 18 6 -38 c22 -122 65 -185 158 -231 48 -25 74
-31 122 -31 68 0 80 5 90 37 4 12 23 32 42 43 19 12 39 30 44 40 15 27 12 89
-6 151 -20 67 -85 134 -139 145 -28 5 -45 18 -75 60 -22 29 -50 60 -62 68 -26
19 -19 29 37 51 61 23 170 15 239 -19z m737 -165 c208 -5 343 -12 356 -19 24
-13 21 -39 -23 -217 -15 -63 -28 -143 -29 -186 -1 -65 -7 -87 -40 -155 -20
-43 -57 -132 -80 -196 -30 -84 -51 -126 -73 -146 -27 -25 -44 -67 -58 -135 -4
-25 -59 -72 -114 -99 -38 -19 -60 -22 -150 -21 -113 1 -239 23 -308 53 -39 18
-47 27 -81 102 -67 145 -81 202 -73 288 l7 75 48 23 c61 28 133 101 172 172
27 49 30 63 28 135 -1 52 1 74 7 65 13 -21 13 103 0 155 -6 22 -14 60 -19 84
l-9 43 52 -6 c28 -4 202 -10 387 -15z m-1091 -5 c0 -11 -19 -15 -25 -6 -3 5 1
10 9 10 9 0 16 -2 16 -4z m1649 -5 c20 -5 101 -15 181 -21 205 -15 377 -39
419 -56 46 -19 69 -41 93 -88 36 -71 15 -121 -116 -271 -100 -114 -207 -218
-254 -246 -198 -117 -237 -136 -366 -175 -89 -27 -242 -52 -252 -41 -4 4 16
78 44 164 80 246 172 617 172 689 0 58 8 63 79 45z m-1525 -190 c25 -49 46
-92 46 -95 0 -13 -36 -4 -75 19 -43 25 -67 62 -80 122 -5 25 -3 32 12 36 45
12 51 7 97 -82z m182 -564 c-6 -40 7 -99 50 -227 9 -25 -45 31 -128 134 -43
54 -76 101 -73 105 4 3 39 11 78 17 40 6 74 12 76 13 2 0 0 -19 -3 -42z" />
    <path
      d="M5073 900 c-41 -13 -63 -45 -63 -91 l0 -36 -115 -10 c-96 -8 -120
-13 -137 -30 -15 -16 -19 -28 -14 -48 9 -34 36 -43 99 -34 29 4 80 8 114 8
l61 1 6 -37 c3 -21 8 -65 12 -98 3 -33 8 -68 10 -77 5 -17 -6 -18 -135 -18
-133 0 -141 -1 -168 -24 -24 -21 -26 -27 -18 -52 l10 -29 162 -3 161 -2 5 -30
c4 -16 9 -58 13 -94 l7 -64 -55 -16 c-68 -19 -138 -69 -138 -97 0 -19 4 -20
78 -16 42 3 92 8 110 12 21 5 32 3 32 -4 0 -7 21 -11 53 -11 l52 0 -1 70 c-1
38 -6 75 -11 82 -13 16 -73 426 -73 495 0 10 13 12 54 7 48 -6 55 -4 65 14 28
53 2 85 -81 97 -32 4 -48 11 -48 21 0 21 91 18 212 -7 110 -23 336 -93 410
-128 62 -30 83 -72 73 -148 -7 -59 -83 -251 -159 -400 -25 -51 -46 -95 -46
-98 0 -3 71 -5 158 -5 l157 0 -60 35 c-33 19 -70 35 -82 35 -21 0 -20 4 23 94
24 51 44 98 44 105 0 6 5 11 12 11 6 0 30 20 52 44 29 30 69 56 136 87 85 38
105 44 193 49 103 6 117 13 117 57 0 40 -25 53 -104 53 -86 0 -166 -19 -248
-60 -72 -36 -92 -38 -83 -9 12 38 -6 118 -38 167 -38 56 -88 83 -262 141 -239
80 -466 117 -552 91z" />
    <path
      d="M2963 630 c-25 -10 -71 -95 -102 -186 -26 -79 -77 -287 -85 -346 -3
-27 -8 -59 -12 -73 l-6 -26 78 3 79 3 12 75 c21 140 68 305 114 406 19 41 25
100 11 120 -8 13 -47 34 -59 33 -4 0 -18 -4 -30 -9z" />
    <path
      d="M6177 219 c-26 -5 -73 -21 -105 -35 -49 -21 -66 -24 -118 -19 -76 9
-104 -4 -104 -45 0 -42 24 -60 83 -62 92 -4 129 2 186 29 34 15 81 27 121 30
75 6 110 24 110 57 0 52 -57 67 -173 45z" />
  </g>
  <style type="text/css">
    path { fill: #000; }
    @media (prefers-color-scheme: dark) {
        path { fill: #000; }
    }
  </style> 
</svg>